<svg xmlns="http://www.w3.org/2000/svg" viewBox="0 48 48 48"><path d="M42 76.6c-9 9.3-16.2 16.9-16.3 16.9L24 95.3l-1.7-1.8c-.1 0-7.3-7.6-16.3-16.9C.7 71.1-.2 65.7 0 62.2c.2-4.1 2.1-8 5-10.4 2.5-2 5.8-3.2 9-3.2 5 0 8.1 2.1 10 4.7 1.9-2.6 5-4.7 10-4.7 3.3 0 6.5 1.2 9 3.2 2.9 2.3 4.7 6.2 5 10.4.2 3.5-.7 8.9-6 14.4zm1.2-14.1c-.2-3.3-1.8-5.7-3.2-6.9-1.6-1.4-3.9-2.1-6-2.1-6.9 0-7.4 6.1-7.6 6.8-.2.8-.7 1.9-2.3 1.9-1.7 0-2.4-1-2.5-1.9-.1-.6-.7-6.7-7.6-6.7-2.1 0-4.4.8-6 2.1-1.4 1.1-3 3.6-3.2 6.9-.2 2.4.5 6.4 4.6 10.7 6.4 6.6 11.9 12.3 14.6 15.1 2.7-2.8 8.2-8.5 14.6-15.1 4.1-4.3 4.8-8.3 4.6-10.8z"/></svg>