<svg xmlns="http://www.w3.org/2000/svg" viewBox="0 48 48 48"><path d="M42,76.6c-9,9.3-16.2,16.9-16.3,16.9L24,95.3l-1.7-1.8C22.2,93.5,15,85.9,6,76.6c-5.3-5.5-6.2-10.9-6-14.4 c0.2-4.1,2.1-8,5-10.4c2.5-2,5.8-3.2,9-3.2c5,0,8.1,2.1,10,4.7c1.9-2.6,5-4.7,10-4.7c3.3,0,6.5,1.2,9,3.2c2.9,2.3,4.7,6.2,5,10.4 C48.2,65.7,47.3,71.1,42,76.6z M43.2,62.5c-0.2-3.3-1.8-5.7-3.2-6.9c-1.6-1.4-3.9-2.1-6-2.1c-6.9,0-7.4,6.1-7.6,6.8 c-0.2,0.8-0.7,1.9-2.3,1.9c-1.7,0-2.4-1-2.5-1.9c-0.1-0.6-0.7-6.7-7.6-6.7c-2.1,0-4.4,0.8-6,2.1c-1.4,1.1-3,3.6-3.2,6.9 C4.6,65,5.3,69,9.4,73.3c6.4,6.6,11.9,12.3,14.6,15.1c2.7-2.8,8.2-8.5,14.6-15.1C42.7,69,43.4,65,43.2,62.5z"/></svg>
